<svg t="1755936675715" class="icon" viewBox="0 0 1024 1024" version="1.1" xmlns="http://www.w3.org/2000/svg" p-id="7795" width="200" height="200"><path d="M815.020408 1024H208.979592C94.040816 1024 0 929.959184 0 815.020408V208.979592C0 94.040816 94.040816 0 208.979592 0h606.040816c114.938776 0 208.979592 94.040816 208.979592 208.979592v606.040816c0 114.938776-94.040816 208.979592-208.979592 208.979592z" fill="#257CFF" p-id="7796"></path><path d="M731.428571 815.020408H292.571429c-45.97551 0-83.591837-37.616327-83.591837-83.591837v-20.897959c0-103.444898 84.636735-188.081633 188.081632-188.081632h229.877552c103.444898 0 188.081633 84.636735 188.081632 188.081632v20.897959c0 45.97551-37.616327 83.591837-83.591837 83.591837z" fill="#FFFFFF" opacity=".6" p-id="7797"></path><path d="M720.979592 773.22449H303.020408c-29.257143 0-52.244898-22.987755-52.244898-52.244898 0-86.726531 70.008163-156.734694 156.734694-156.734694h208.979592c86.726531 0 156.734694 70.008163 156.734694 156.734694 0 29.257143-22.987755 52.244898-52.244898 52.244898z" fill="#FFFFFF" p-id="7798"></path><path d="M512 522.44898c-86.726531 0-156.734694-70.008163-156.734694-156.734694s70.008163-156.734694 156.734694-156.734694 156.734694 70.008163 156.734694 156.734694-70.008163 156.734694-156.734694 156.734694z" fill="#FFFFFF" opacity=".88" p-id="7799"></path><path d="M512 470.204082c-57.469388 0-104.489796-47.020408-104.489796-104.489796s47.020408-104.489796 104.489796-104.489796 104.489796 47.020408 104.489796 104.489796-47.020408 104.489796-104.489796 104.489796z" fill="#FFFFFF" p-id="7800"></path><path d="M544.391837 564.244898h-62.693878L459.755102 689.632653l52.244898 41.795918 52.244898-41.795918c-6.269388-41.795918-13.583673-83.591837-19.853061-125.387755z" fill="#257CFF" p-id="7801"></path></svg>